<svg xmlns="http://www.w3.org/2000/svg" xmlns:xlink="http://www.w3.org/1999/xlink" version="1.1" id="Layer_1" x="0px" y="0px" viewBox="0 0 64 64" xml:space="preserve" width="100%" height="100%"><g xmlns="http://www.w3.org/2000/svg">
	<path class="stshockcolor" d="M27.808,30.595c0,0-13.209,7.626-14.027,8.1C12.119,39.655,11,41.384,11,43.623c0,1.542,0.568,2.897,2,5.377   c1.026-1.778,2.64-3,5-3c2.208,0,14.651,0,14.651,0L27.808,30.595z" style="fill:#A6A69F;;" fill="rgb(166, 166, 159)"></path>
	<path class="st6" d="M27.808,30.595c0,0-13.209,7.626-14.027,8.1C12.119,39.655,11,41.384,11,43.623c0,1.542,0.568,2.897,2,5.377   c1.026-1.778,2.64-3,5-3c2.208,0,14.651,0,14.651,0L27.808,30.595z" style="opacity:0.3;fill:#231F20;;" fill="rgb(35, 31, 32)"></path>
</g><g xmlns="http://www.w3.org/2000/svg">
	<defs>
		<path id="574090564_SVGID_1__grid" d="M54.152,41.308c-2.385-4.122-10.504-18.186-10.504-18.186L22.375,33.731l5.45,9.439    c0,0-2.838,1.64-3.044,1.759C23.119,45.891,22,47.688,22,49.747c0,1.418,0.568,2.773,2,5.253l1.732,3h10.029l2.31,4    c0,0,3.621,0,4.137,0C49.824,62,56,55.824,56,48.206C56,45.693,55.327,43.336,54.152,41.308z"></path>
	</defs>
	<use xmlns:xlink="http://www.w3.org/1999/xlink" xlink:href="#574090564_SVGID_1__grid" class="stshockcolor" style="fill:#A6A69F;;overflow:visible;" fill="rgb(166, 166, 159)"></use>
	<clipPath id="574090564_SVGID_2__grid">
		<use xmlns:xlink="http://www.w3.org/1999/xlink" xlink:href="#574090564_SVGID_1__grid" style="overflow:visible;"></use>
	</clipPath>
	<g class="st0" style="opacity:0.3;clip-path:url(#574090564_SVGID_2__grid);;">
		<path class="st3" d="M21,30c0,0,16.937-2.758,18.269-0.449c1.607,2.785,0.43,6.765-2.107,8.23    c-3.567,2.06-11.743,6.779-12.38,7.148C23.119,45.891,22,47.688,22,49.747c0,1.418,0.568,2.773,2,5.253c1.026-1.778,2.64-3,5-3    c2.208,0,15,0,15,0v10H21V30z" style="fill:#FFFFFF;;" fill="rgb(255, 255, 255)"></path>
		<path class="st2" d="M54,53.635c0,5.32-4.314,9.634-9.635,9.634c-1.326,0-5.562,0-5.562,0s-1.735-3.006-2.781-4.813    c-0.821-1.419-1.292-3.064-1.292-4.821c0-5.32,4.314-9.635,9.635-9.635S54,48.314,54,53.635z" style="fill:#231F20;;" fill="rgb(35, 31, 32)"></path>
	</g>
</g><g xmlns="http://www.w3.org/2000/svg">
	<defs>
		<path id="574090564_SVGID_3__grid" d="M48,16c0-6.386-3.47-11.962-8.628-14.943L35.367,8H20.626l-4.005-6.944C11.463,4.038,7.917,9.614,7.917,16    l8.093,0c-1.472,2.55-2.827,4.896-3.232,5.595C12.283,22.449,12,23.441,12,24.5c0,1.052,0.28,2.039,0.77,2.891    C14.813,30.945,20,34,25,34c5.392,0,10.416-2.225,14.269-4.449c1.28-0.739,4.621-2.585,6.104-3.442L39.787,16H48z"></path>
	</defs>
	<use xmlns:xlink="http://www.w3.org/1999/xlink" xlink:href="#574090564_SVGID_3__grid" class="stshockcolor" style="fill:#A6A69F;;overflow:visible;" fill="rgb(166, 166, 159)"></use>
	<clipPath id="574090564_SVGID_4__grid">
		<use xmlns:xlink="http://www.w3.org/1999/xlink" xlink:href="#574090564_SVGID_3__grid" style="overflow:visible;"></use>
	</clipPath>
	<g class="st1" style="opacity:0.5;clip-path:url(#574090564_SVGID_4__grid);;">
		<polygon class="st3" points="14,25.813 17.803,25.813 22.375,33.731 14,33.731   " style="fill:#FFFFFF;;" fill="rgb(255, 255, 255)"></polygon>
		<path class="st2" d="M16.009,16c-2.384,0-2.927-5.354-4.009-5.587v21.08c1.399-0.808,6.812-3.934,6.812-3.934    C21.269,23.302,22,21.583,22,20.072C22,18.083,20.375,16,16.009,16z" style="fill:#231F20;;" fill="rgb(35, 31, 32)"></path>
		<polygon class="st3" points="7,16 16.009,16 20.626,8 35.367,8 39.787,16 48,16 48,1.056 7,1.056   " style="fill:#FFFFFF;;" fill="rgb(255, 255, 255)"></polygon>
	</g>
</g><ellipse xmlns="http://www.w3.org/2000/svg" class="st4" cx="26" cy="22.5" rx="2" ry="2.5" style="fill:#231F20;fill-opacity:0.6;;" fill="rgb(35, 31, 32)" opacity="0.6"></ellipse></svg>